<svg width="13" height="20" viewBox="0 0 13 20" fill="none" xmlns="http://www.w3.org/2000/svg">
<path d="M12.1875 19.2025C10.719 19.2025 9.25949 18.6702 7.80903 17.6055C6.35856 16.5408 5.05556 15.1567 3.9 13.4533C2.74444 11.7498 1.80556 9.82892 1.08333 7.6907C0.361111 5.55248 0 3.40096 0 1.23612C0 0.893897 0.07738 0.608715 0.23214 0.380573C0.3869 0.152431 0.580354 0.0383606 0.8125 0.0383606H3.34028C3.50411 0.0383606 3.6504 0.122647 3.77914 0.291221C3.90786 0.459794 3.99028 0.686037 4.02639 0.96995L4.51389 4.32367C4.53796 4.5721 4.53495 4.79834 4.50486 5.0024C4.47477 5.20646 4.41157 5.37947 4.31528 5.52143L2.50972 8.20973C3.1838 9.85998 3.93912 11.2973 4.77569 12.5217C5.61227 13.746 6.56019 14.7841 7.61944 15.6358L9.33472 13.0274C9.45509 12.8322 9.59352 12.6947 9.75 12.6148C9.90648 12.535 10.063 12.5217 10.2194 12.5749L12.3681 13.2669C12.5524 13.3268 12.7038 13.4616 12.8223 13.6712C12.9408 13.8808 13 14.1275 13 14.4115V18.0047C13 18.347 12.9226 18.6321 12.7679 18.8603C12.6131 19.0884 12.4196 19.2025 12.1875 19.2025ZM1.96806 6.74581L3.43056 4.56322L3.01528 1.63537H1.08333C1.08333 2.32741 1.15556 3.08599 1.3 3.91111C1.44444 4.73623 1.66713 5.68113 1.96806 6.74581ZM8.63056 16.4077C9.12407 16.7449 9.65972 17.0199 10.2375 17.2328C10.8153 17.4458 11.375 17.57 11.9167 17.6055V14.7575L10.0569 14.1985L8.63056 16.4077Z" fill="black"/>
</svg>
