<svg width="177" height="36" viewBox="0 0 177 36" fill="none" xmlns="http://www.w3.org/2000/svg">
<path d="M37.5786 5.6H39.3386V28H37.5786V5.6ZM43.6586 28H38.5386V26.24H43.6586C45.0453 26.24 46.304 26.016 47.4346 25.568C48.5866 25.12 49.568 24.4907 50.3786 23.68C51.1893 22.848 51.808 21.856 52.2346 20.704C52.6826 19.5307 52.9066 18.2293 52.9066 16.8C52.9066 15.3707 52.6826 14.08 52.2346 12.928C51.808 11.7547 51.1893 10.7627 50.3786 9.952C49.568 9.12 48.5866 8.48 47.4346 8.032C46.304 7.584 45.0453 7.36 43.6586 7.36H38.5386V5.6H43.6586C45.8346 5.6 47.744 6.06933 49.3866 7.008C51.0506 7.94667 52.3413 9.25867 53.2586 10.944C54.1973 12.608 54.6666 14.56 54.6666 16.8C54.6666 19.04 54.1973 21.0027 53.2586 22.688C52.3413 24.352 51.0506 25.6533 49.3866 26.592C47.744 27.5307 45.8346 28 43.6586 28ZM64.1421 28.32C62.8195 28.32 61.6461 27.9893 60.6221 27.328C59.5981 26.6667 58.7875 25.76 58.1901 24.608C57.6141 23.4347 57.3261 22.1013 57.3261 20.608C57.3261 19.1147 57.6248 17.792 58.2221 16.64C58.8195 15.488 59.6515 14.592 60.7181 13.952C61.7848 13.2907 63.0115 12.96 64.3981 12.96C65.7421 12.96 66.9155 13.2693 67.9181 13.888C68.9421 14.5067 69.7315 15.3707 70.2861 16.48C70.8621 17.568 71.1501 18.8267 71.1501 20.256C71.1501 20.384 71.1395 20.5227 71.1181 20.672C71.1181 20.8213 71.1075 20.9493 71.0861 21.056H58.3821V19.616H69.8381L69.1341 20.608C69.1768 20.5013 69.2195 20.3627 69.2621 20.192C69.3261 20 69.3581 19.8187 69.3581 19.648C69.3581 18.6453 69.1341 17.7493 68.6861 16.96C68.2595 16.1707 67.6728 15.552 66.9261 15.104C66.1795 14.656 65.3368 14.432 64.3981 14.432C63.3101 14.432 62.3608 14.688 61.5501 15.2C60.7608 15.6907 60.1421 16.3947 59.6941 17.312C59.2461 18.208 59.0221 19.2747 59.0221 20.512C59.0221 21.7707 59.2355 22.8693 59.6621 23.808C60.1101 24.7467 60.7288 25.472 61.5181 25.984C62.3288 26.496 63.2675 26.752 64.3341 26.752C65.4648 26.752 66.4461 26.5067 67.2781 26.016C68.1315 25.5253 68.8888 24.7573 69.5501 23.712L70.8941 24.576C70.0621 25.856 69.0915 26.8053 67.9821 27.424C66.8941 28.0213 65.6141 28.32 64.1421 28.32ZM84.3586 18.528C84.3586 17.2693 84.0813 16.288 83.5266 15.584C82.972 14.88 82.0973 14.528 80.9026 14.528C80.0706 14.528 79.324 14.7307 78.6626 15.136C78.0226 15.52 77.5106 16.0533 77.1266 16.736C76.764 17.4187 76.5826 18.1867 76.5826 19.04V28H74.9186V13.28H76.5826V16.352C76.988 15.2853 77.596 14.4533 78.4066 13.856C79.2386 13.2587 80.1986 12.96 81.2866 12.96C82.8226 12.96 83.996 13.4507 84.8066 14.432C85.6173 15.392 86.0226 16.6933 86.0226 18.336V28H84.3586V18.528ZM88.8349 13.28H95.2989V14.848H88.8349V13.28ZM91.2349 8.16H92.8989V28H91.2349V8.16ZM98.1061 6.624C98.1061 6.28267 98.2235 6.00533 98.4581 5.792C98.6928 5.55733 98.9701 5.44 99.2901 5.44C99.6315 5.44 99.9088 5.55733 100.122 5.792C100.357 6.00533 100.474 6.28267 100.474 6.624C100.474 6.944 100.357 7.22133 100.122 7.456C99.9088 7.69067 99.6315 7.808 99.2901 7.808C98.9701 7.808 98.6928 7.69067 98.4581 7.456C98.2235 7.22133 98.1061 6.944 98.1061 6.624ZM98.4581 13.28H100.122V28H98.4581V13.28ZM105.512 23.808C105.725 24.3413 106.013 24.832 106.376 25.28C106.738 25.728 107.197 26.0907 107.752 26.368C108.328 26.6453 109 26.784 109.768 26.784C110.664 26.784 111.378 26.56 111.912 26.112C112.466 25.6427 112.744 25.0027 112.744 24.192C112.744 23.5947 112.573 23.104 112.232 22.72C111.89 22.3147 111.442 21.984 110.888 21.728C110.333 21.4507 109.736 21.2053 109.096 20.992C108.413 20.736 107.752 20.448 107.112 20.128C106.472 19.808 105.938 19.3813 105.512 18.848C105.106 18.2933 104.904 17.5787 104.904 16.704C104.904 15.872 105.106 15.1787 105.512 14.624C105.938 14.0693 106.482 13.664 107.144 13.408C107.826 13.1307 108.552 12.992 109.32 12.992C110.152 12.992 110.898 13.1307 111.56 13.408C112.221 13.6853 112.786 14.048 113.256 14.496C113.725 14.944 114.088 15.4453 114.344 16L112.968 16.832C112.626 16.192 112.146 15.6373 111.528 15.168C110.909 14.6987 110.109 14.464 109.128 14.464C108.402 14.464 107.784 14.6453 107.272 15.008C106.781 15.3707 106.536 15.904 106.536 16.608C106.536 17.184 106.696 17.664 107.016 18.048C107.336 18.4107 107.762 18.7093 108.296 18.944C108.829 19.1787 109.394 19.4027 109.992 19.616C110.781 19.9147 111.506 20.2453 112.168 20.608C112.85 20.9707 113.394 21.4187 113.8 21.952C114.226 22.4853 114.44 23.168 114.44 24C114.44 25.28 113.992 26.3253 113.096 27.136C112.221 27.9253 111.08 28.32 109.672 28.32C108.648 28.32 107.752 28.1387 106.984 27.776C106.237 27.4133 105.629 26.944 105.16 26.368C104.712 25.792 104.381 25.1947 104.168 24.576L105.512 23.808ZM116.21 13.28H122.674V14.848H116.21V13.28ZM118.61 8.16H120.274V28H118.61V8.16ZM127.145 13.28V28H125.481V13.28H127.145ZM132.041 15.232C131.721 14.9973 131.412 14.8267 131.113 14.72C130.836 14.592 130.505 14.528 130.121 14.528C129.396 14.528 128.809 14.7307 128.361 15.136C127.934 15.5413 127.625 16.0853 127.433 16.768C127.241 17.4507 127.145 18.208 127.145 19.04H126.377C126.377 17.8667 126.558 16.832 126.921 15.936C127.284 15.0187 127.774 14.2933 128.393 13.76C129.033 13.2267 129.737 12.96 130.505 12.96C130.974 12.96 131.412 13.0347 131.817 13.184C132.244 13.312 132.628 13.536 132.969 13.856L132.041 15.232ZM147.994 13.28L138.394 35.04H136.538L140.314 26.496L134.362 13.28H136.346L141.69 25.824L140.922 25.76L146.138 13.28H147.994Z" fill="black"/>
<path d="M10.3543 6.39744C8.1852 8.33904 7.51779 10.878 8.01835 16.3294C8.51891 22.0049 11.5223 28.5764 13.9417 29.2485C15.9439 29.8459 17.8627 27.9043 17.8627 25.2159C17.8627 23.0503 19.3644 20.4366 20.3655 20.9594C20.7827 21.1834 21.3667 22.8263 21.7004 24.6932C22.6181 30.4433 25.7049 31.0407 28.5414 26.0374C30.9608 21.7808 32.379 15.284 31.7116 11.3261C30.8773 6.69615 28.0408 4.6052 23.2855 5.27729C21.4501 5.576 19.6147 6.09874 19.281 6.39744C17.9462 7.44291 20.1153 7.8163 23.2021 7.06953C27.1231 6.09874 29.2088 7.44291 29.9596 11.4755C30.7939 16.2548 27.3734 27.3816 24.954 27.6056C24.5369 27.6056 23.8695 26.1867 23.4523 24.3198C22.6181 20.4366 21.6169 19.0925 19.5313 19.0925C18.0296 19.0925 16.1942 21.9302 16.1942 24.3198C16.1942 26.1121 15.3599 28.0537 14.5257 28.0537C13.2742 28.0537 10.1874 20.2126 9.77031 15.956C9.26975 11.1021 10.5212 7.44291 12.9405 6.77082C13.7748 6.47212 14.5257 5.94938 14.5257 5.576C14.5257 4.38117 12.1063 4.82923 10.3543 6.39744Z" fill="black"/>
<path d="M22.7015 9.7579C21.4501 10.3553 19.6981 10.8034 18.7804 10.654C17.8627 10.5793 17.0284 10.8034 16.8616 11.2514C16.4444 12.3716 21.1998 12.5956 23.3689 11.5501C25.2043 10.7287 26.7894 8.63775 25.538 8.63775C25.2043 8.71242 23.9529 9.16048 22.7015 9.7579Z" fill="black"/>
</svg>
