<svg width="141" height="46" viewBox="0 0 141 46" fill="none" xmlns="http://www.w3.org/2000/svg">
<path d="M29.218 11.6H30.978V34H29.218V11.6ZM35.298 34H30.178V32.24H35.298C36.6847 32.24 37.9434 32.016 39.074 31.568C40.226 31.12 41.2074 30.4907 42.018 29.68C42.8287 28.848 43.4474 27.856 43.874 26.704C44.322 25.5307 44.546 24.2293 44.546 22.8C44.546 21.3707 44.322 20.08 43.874 18.928C43.4474 17.7547 42.8287 16.7627 42.018 15.952C41.2074 15.12 40.226 14.48 39.074 14.032C37.9434 13.584 36.6847 13.36 35.298 13.36H30.178V11.6H35.298C37.474 11.6 39.3834 12.0693 41.026 13.008C42.69 13.9467 43.9807 15.2587 44.898 16.944C45.8367 18.608 46.306 20.56 46.306 22.8C46.306 25.04 45.8367 27.0027 44.898 28.688C43.9807 30.352 42.69 31.6533 41.026 32.592C39.3834 33.5307 37.474 34 35.298 34ZM55.7815 34.32C54.4589 34.32 53.2855 33.9893 52.2615 33.328C51.2375 32.6667 50.4269 31.76 49.8295 30.608C49.2535 29.4347 48.9655 28.1013 48.9655 26.608C48.9655 25.1147 49.2642 23.792 49.8615 22.64C50.4589 21.488 51.2909 20.592 52.3575 19.952C53.4242 19.2907 54.6509 18.96 56.0375 18.96C57.3815 18.96 58.5549 19.2693 59.5575 19.888C60.5815 20.5067 61.3709 21.3707 61.9255 22.48C62.5015 23.568 62.7895 24.8267 62.7895 26.256C62.7895 26.384 62.7789 26.5227 62.7575 26.672C62.7575 26.8213 62.7469 26.9493 62.7255 27.056H50.0215V25.616H61.4775L60.7735 26.608C60.8162 26.5013 60.8589 26.3627 60.9015 26.192C60.9655 26 60.9975 25.8187 60.9975 25.648C60.9975 24.6453 60.7735 23.7493 60.3255 22.96C59.8989 22.1707 59.3122 21.552 58.5655 21.104C57.8189 20.656 56.9762 20.432 56.0375 20.432C54.9495 20.432 54.0002 20.688 53.1895 21.2C52.4002 21.6907 51.7815 22.3947 51.3335 23.312C50.8855 24.208 50.6615 25.2747 50.6615 26.512C50.6615 27.7707 50.8749 28.8693 51.3015 29.808C51.7495 30.7467 52.3682 31.472 53.1575 31.984C53.9682 32.496 54.9069 32.752 55.9735 32.752C57.1042 32.752 58.0855 32.5067 58.9175 32.016C59.7709 31.5253 60.5282 30.7573 61.1895 29.712L62.5335 30.576C61.7015 31.856 60.7309 32.8053 59.6215 33.424C58.5335 34.0213 57.2535 34.32 55.7815 34.32ZM75.998 24.528C75.998 23.2693 75.7207 22.288 75.166 21.584C74.6114 20.88 73.7367 20.528 72.542 20.528C71.71 20.528 70.9634 20.7307 70.302 21.136C69.662 21.52 69.15 22.0533 68.766 22.736C68.4034 23.4187 68.222 24.1867 68.222 25.04V34H66.558V19.28H68.222V22.352C68.6274 21.2853 69.2354 20.4533 70.046 19.856C70.878 19.2587 71.838 18.96 72.926 18.96C74.462 18.96 75.6354 19.4507 76.446 20.432C77.2567 21.392 77.662 22.6933 77.662 24.336V34H75.998V24.528ZM80.4743 19.28H86.9383V20.848H80.4743V19.28ZM82.8743 14.16H84.5383V34H82.8743V14.16ZM89.7455 12.624C89.7455 12.2827 89.8629 12.0053 90.0975 11.792C90.3322 11.5573 90.6095 11.44 90.9295 11.44C91.2709 11.44 91.5482 11.5573 91.7615 11.792C91.9962 12.0053 92.1135 12.2827 92.1135 12.624C92.1135 12.944 91.9962 13.2213 91.7615 13.456C91.5482 13.6907 91.2709 13.808 90.9295 13.808C90.6095 13.808 90.3322 13.6907 90.0975 13.456C89.8629 13.2213 89.7455 12.944 89.7455 12.624ZM90.0975 19.28H91.7615V34H90.0975V19.28ZM97.151 29.808C97.3644 30.3413 97.6524 30.832 98.015 31.28C98.3777 31.728 98.8364 32.0907 99.391 32.368C99.967 32.6453 100.639 32.784 101.407 32.784C102.303 32.784 103.018 32.56 103.551 32.112C104.106 31.6427 104.383 31.0027 104.383 30.192C104.383 29.5947 104.212 29.104 103.871 28.72C103.53 28.3147 103.082 27.984 102.527 27.728C101.972 27.4507 101.375 27.2053 100.735 26.992C100.052 26.736 99.391 26.448 98.751 26.128C98.111 25.808 97.5777 25.3813 97.151 24.848C96.7457 24.2933 96.543 23.5787 96.543 22.704C96.543 21.872 96.7457 21.1787 97.151 20.624C97.5777 20.0693 98.1217 19.664 98.783 19.408C99.4657 19.1307 100.191 18.992 100.959 18.992C101.791 18.992 102.538 19.1307 103.199 19.408C103.86 19.6853 104.426 20.048 104.895 20.496C105.364 20.944 105.727 21.4453 105.983 22L104.607 22.832C104.266 22.192 103.786 21.6373 103.167 21.168C102.548 20.6987 101.748 20.464 100.767 20.464C100.042 20.464 99.423 20.6453 98.911 21.008C98.4204 21.3707 98.175 21.904 98.175 22.608C98.175 23.184 98.335 23.664 98.655 24.048C98.975 24.4107 99.4017 24.7093 99.935 24.944C100.468 25.1787 101.034 25.4027 101.631 25.616C102.42 25.9147 103.146 26.2453 103.807 26.608C104.49 26.9707 105.034 27.4187 105.439 27.952C105.866 28.4853 106.079 29.168 106.079 30C106.079 31.28 105.631 32.3253 104.735 33.136C103.86 33.9253 102.719 34.32 101.311 34.32C100.287 34.32 99.391 34.1387 98.623 33.776C97.8764 33.4133 97.2684 32.944 96.799 32.368C96.351 31.792 96.0204 31.1947 95.807 30.576L97.151 29.808ZM107.849 19.28H114.313V20.848H107.849V19.28ZM110.249 14.16H111.913V34H110.249V14.16ZM118.785 19.28V34H117.121V19.28H118.785ZM123.681 21.232C123.361 20.9973 123.051 20.8267 122.753 20.72C122.475 20.592 122.145 20.528 121.761 20.528C121.035 20.528 120.449 20.7307 120.001 21.136C119.574 21.5413 119.265 22.0853 119.073 22.768C118.881 23.4507 118.785 24.208 118.785 25.04H118.017C118.017 23.8667 118.198 22.832 118.561 21.936C118.923 21.0187 119.414 20.2933 120.033 19.76C120.673 19.2267 121.377 18.96 122.145 18.96C122.614 18.96 123.051 19.0347 123.457 19.184C123.883 19.312 124.267 19.536 124.609 19.856L123.681 21.232ZM139.634 19.28L130.034 41.04H128.178L131.954 32.496L126.002 19.28H127.986L133.33 31.824L132.562 31.76L137.778 19.28H139.634Z" fill="#F3F3F3"/>
<path d="M2.49371 13.3974C0.324607 15.339 -0.342808 17.878 0.157753 23.3294C0.658315 29.0049 3.66168 35.5764 6.08107 36.2485C8.08331 36.8459 10.0021 34.9043 10.0021 32.2159C10.0021 30.0503 11.5038 27.4366 12.5049 27.9594C12.9221 28.1834 13.5061 29.8263 13.8398 31.6932C14.7575 37.4433 17.8443 38.0407 20.6808 33.0374C23.1002 28.7808 24.5184 22.284 23.851 18.3261C23.0167 13.6961 20.1802 11.6052 15.4249 12.2773C13.5895 12.576 11.7541 13.0987 11.4204 13.3974C10.0856 14.4429 12.2547 14.8163 15.3415 14.0695C19.2625 13.0987 21.3482 14.4429 22.099 18.4755C22.9333 23.2548 19.5128 34.3816 17.0934 34.6056C16.6763 34.6056 16.0089 33.1867 15.5917 31.3198C14.7575 27.4366 13.7563 26.0925 11.6707 26.0925C10.169 26.0925 8.33359 28.9302 8.33359 31.3198C8.33359 33.1121 7.49932 35.0537 6.66505 35.0537C5.41365 35.0537 2.32685 27.2126 1.90972 22.956C1.40916 18.1021 2.66056 14.4429 5.07994 13.7708C5.91421 13.4721 6.66505 12.9494 6.66505 12.576C6.66505 11.3812 4.24567 11.8292 2.49371 13.3974Z" fill="white"/>
<path d="M14.8409 16.7579C13.5895 17.3553 11.8375 17.8033 10.9198 17.654C10.0021 17.5793 9.16784 17.8033 9.00098 18.2514C8.58385 19.3715 13.3392 19.5956 15.5083 18.5501C17.3437 17.7287 18.9288 15.6377 17.6774 15.6377C17.3437 15.7124 16.0923 16.1605 14.8409 16.7579Z" fill="white"/>
</svg>
