<svg width="32" height="31" viewBox="0 0 32 31" fill="none" xmlns="http://www.w3.org/2000/svg">
<path d="M7.15728 28.2801V14.9512H9.09898V26.3577H19.4547V19.2126L22.7556 15.9445C23.4028 15.3036 23.8991 14.572 24.2442 13.7497C24.5894 12.9273 24.762 12.0675 24.762 11.1704C24.762 10.2733 24.584 9.4135 24.2281 8.59113C23.8721 7.76875 23.3813 7.04783 22.7556 6.42838L21.72 5.37104L17.4807 9.56837H11.6556L9.94039 11.2665L8.54884 9.92081L10.8465 7.64593H16.6716L21.72 2.64758L24.1472 5.05063C24.967 5.86233 25.5927 6.79685 26.0241 7.85419C26.4556 8.91153 26.6822 10.0169 26.7037 11.1704C26.6822 12.3239 26.4556 13.4293 26.0241 14.4866C25.5927 15.5439 24.967 16.4785 24.1472 17.2902L21.3964 20.0136V28.2801H7.15728ZM13.2089 21.3914L6.70422 14.9512C6.48848 14.7376 6.32667 14.4973 6.2188 14.2303C6.11092 13.9633 6.05699 13.6803 6.05699 13.3812C6.05699 13.0822 6.11092 12.7938 6.2188 12.5161C6.32667 12.2384 6.48848 11.9928 6.70422 11.7792L9.19607 9.28L12.9824 12.9967C13.5649 13.5734 14.0126 14.2303 14.3254 14.9672C14.6382 15.7042 14.7946 16.4785 14.7946 17.2902C14.7946 18.0378 14.6598 18.7694 14.3901 19.485C14.1204 20.2005 13.7267 20.836 13.2089 21.3914Z" fill="#393939"/>
</svg>
