<svg width="33" height="31" viewBox="0 0 33 31" fill="none" xmlns="http://www.w3.org/2000/svg">
<path d="M6.54175 28.196V14.8671H8.56497V26.2736H19.3555V19.1285L22.795 15.8604C23.4694 15.2195 23.9864 14.4879 24.3461 13.6656C24.7058 12.8432 24.8856 11.9834 24.8856 11.0863C24.8856 10.1892 24.7002 9.3294 24.3292 8.50702C23.9583 7.68464 23.4469 6.96373 22.795 6.34427L21.7159 5.28693L17.2985 9.48426H11.2289L9.4417 11.1824L7.99172 9.83671L10.3859 7.56182H16.4555L21.7159 2.56348L24.2449 4.96653C25.0992 5.77822 25.7511 6.71274 26.2007 7.77008C26.6503 8.82743 26.8864 9.93283 26.9088 11.0863C26.8864 12.2398 26.6503 13.3452 26.2007 14.4025C25.7511 15.4598 25.0992 16.3944 24.2449 17.2061L21.3787 19.9295V28.196H6.54175ZM12.8475 21.3073L6.06966 14.8671C5.84486 14.6535 5.67626 14.4132 5.56386 14.1462C5.45146 13.8792 5.39526 13.5961 5.39526 13.2971C5.39526 12.9981 5.45146 12.7097 5.56386 12.432C5.67626 12.1543 5.84486 11.9087 6.06966 11.6951L8.66613 9.19589L12.6114 12.9126C13.2184 13.4893 13.6848 14.1462 14.0108 14.8831C14.3368 15.62 14.4998 16.3944 14.4998 17.2061C14.4998 17.9537 14.3593 18.6853 14.0783 19.4008C13.7972 20.1164 13.387 20.7519 12.8475 21.3073Z" fill="white"/>
</svg>
