<svg width="35" height="39" viewBox="0 0 35 39" fill="none" xmlns="http://www.w3.org/2000/svg">
<path d="M17.3419 26.7442C19.8456 24.4856 21.7361 22.3118 23.0132 20.2226C24.2904 18.1334 24.929 16.1866 24.929 14.3821C24.929 12.7931 24.6701 11.4464 24.1522 10.3422C23.6344 9.23793 22.996 8.3373 22.2371 7.64028C21.4781 6.94324 20.6559 6.43825 19.7705 6.12532C18.8851 5.81236 18.0755 5.65588 17.3419 5.65588C16.6083 5.65588 15.7987 5.81236 14.9133 6.12532C14.0279 6.43825 13.2057 6.94324 12.4468 7.64028C11.6878 8.3373 11.0494 9.23793 10.5316 10.3422C10.0137 11.4464 9.75482 12.7931 9.75482 14.3821C9.75482 16.1866 10.3934 18.1334 11.6706 20.2226C12.9477 22.3118 14.8382 24.4856 17.3419 26.7442ZM17.3419 29.8145C14.0421 27.0405 11.5914 24.3849 9.98966 21.8479C8.38794 19.3108 7.58708 16.8255 7.58708 14.3921C7.58708 12.554 7.88214 10.9414 8.47224 9.55439C9.06235 8.16736 9.82708 7.00252 10.7664 6.05987C11.7058 5.11722 12.7533 4.41024 13.9089 3.93892C15.0646 3.46759 16.2087 3.23193 17.3412 3.23193C18.4737 3.23193 19.618 3.46759 20.7742 3.93892C21.9303 4.41024 22.978 5.11722 23.9174 6.05987C24.8567 7.00252 25.6215 8.1678 26.2116 9.55572C26.8017 10.9436 27.0967 12.5586 27.0967 14.4005C27.0967 16.8391 26.2959 19.3242 24.6941 21.8559C23.0924 24.3876 20.6417 27.0405 17.3419 29.8145ZM17.3451 16.9676C18.0415 16.9676 18.6365 16.6904 19.1303 16.1358C19.6241 15.5814 19.8709 14.9148 19.8709 14.1361C19.8709 13.3574 19.623 12.6921 19.1271 12.1399C18.6312 11.5878 18.0351 11.3118 17.3387 11.3118C16.6423 11.3118 16.0473 11.589 15.5535 12.1435C15.0598 12.698 14.8129 13.3646 14.8129 14.1433C14.8129 14.9219 15.0608 15.5873 15.5567 16.1394C16.0526 16.6916 16.6487 16.9676 17.3451 16.9676ZM7.58708 35.5512V33.1273H27.0967V35.5512H7.58708Z" fill="white"/>
</svg>
