<svg width="34" height="40" viewBox="0 0 34 40" fill="none" xmlns="http://www.w3.org/2000/svg">
<path d="M16.6431 27.5876C19.046 25.329 20.8603 23.1551 22.086 21.066C23.3117 18.9768 23.9245 17.03 23.9245 15.2255C23.9245 13.6364 23.676 12.2898 23.1791 11.1856C22.6821 10.0813 22.0694 9.18069 21.3411 8.48367C20.6127 7.78662 19.8236 7.28163 18.9739 6.9687C18.1241 6.65574 17.3472 6.49926 16.6431 6.49926C15.9391 6.49926 15.1622 6.65574 14.3124 6.9687C13.4627 7.28163 12.6736 7.78662 11.9452 8.48367C11.2169 9.18069 10.6042 10.0813 10.1072 11.1856C9.61026 12.2898 9.36177 13.6364 9.36177 15.2255C9.36177 17.03 9.97462 18.9768 11.2003 21.066C12.426 23.1551 14.2403 25.329 16.6431 27.5876ZM16.6431 30.6579C13.4763 27.8838 11.1243 25.2283 9.58715 22.6913C8.04997 20.1542 7.28138 17.6689 7.28138 15.2354C7.28138 13.3974 7.56454 11.7848 8.13087 10.3978C8.6972 9.01074 9.43112 7.8459 10.3326 6.90325C11.2341 5.96061 12.2394 5.25362 13.3485 4.7823C14.4576 4.31098 15.5556 4.07532 16.6425 4.07532C17.7293 4.07532 18.8276 4.31098 19.9371 4.7823C21.0466 5.25362 22.0522 5.96061 22.9537 6.90325C23.8552 7.8459 24.5891 9.01118 25.1554 10.3991C25.7218 11.787 26.0049 13.402 26.0049 15.2439C26.0049 17.6825 25.2363 20.1676 23.6991 22.6993C22.162 25.231 19.81 27.8838 16.6431 30.6579ZM16.6462 17.811C17.3145 17.811 17.8856 17.5338 18.3595 16.9792C18.8333 16.4247 19.0703 15.7582 19.0703 14.9795C19.0703 14.2008 18.8323 13.5354 18.3564 12.9833C17.8805 12.4312 17.3084 12.1551 16.6401 12.1551C15.9718 12.1551 15.4007 12.4324 14.9268 12.9869C14.453 13.5414 14.216 14.208 14.216 14.9867C14.216 15.7653 14.454 16.4307 14.9299 16.9828C15.4058 17.5349 15.9779 17.811 16.6462 17.811ZM7.28138 36.3946V33.9706H26.0049V36.3946H7.28138Z" fill="#3E3E3E"/>
</svg>
