<svg width="30" height="30" viewBox="0 0 30 30" fill="none" xmlns="http://www.w3.org/2000/svg">
<path d="M21.75 27.5C16.6466 27.4934 11.7541 25.4632 8.1455 21.8545C4.53686 18.2459 2.50661 13.3534 2.5 8.25002C2.5 6.72503 3.1058 5.26249 4.18414 4.18416C5.26247 3.10582 6.72501 2.50002 8.25 2.50002C8.57293 2.49756 8.89531 2.52687 9.2125 2.58752C9.51914 2.6329 9.82058 2.70826 10.1125 2.81252C10.3178 2.88456 10.5008 3.00894 10.6433 3.17336C10.7858 3.33778 10.8829 3.53656 10.925 3.75002L12.6375 11.25C12.6837 11.4536 12.6781 11.6655 12.6213 11.8664C12.5646 12.0673 12.4584 12.2507 12.3125 12.4C12.15 12.575 12.1375 12.5875 10.6 13.3875C11.8312 16.0886 13.9915 18.2577 16.6875 19.5C17.5 17.95 17.5125 17.9375 17.6875 17.775C17.8368 17.6291 18.0203 17.523 18.2211 17.4662C18.422 17.4094 18.6339 17.4039 18.8375 17.45L26.3375 19.1625C26.5441 19.2105 26.7352 19.3102 26.8926 19.4523C27.0501 19.5945 27.1687 19.7744 27.2375 19.975C27.343 20.2717 27.4225 20.577 27.475 20.8875C27.5253 21.2017 27.5504 21.5194 27.55 21.8375C27.527 23.356 26.9041 24.8037 25.8175 25.8646C24.7308 26.9255 23.2686 27.5134 21.75 27.5ZM8.25 5.00002C7.38906 5.00331 6.56432 5.34678 5.95554 5.95556C5.34676 6.56434 5.00329 7.38908 5 8.25002C5.00331 12.6914 6.7691 16.9499 9.90962 20.0904C13.0501 23.2309 17.3086 24.9967 21.75 25C22.6109 24.9967 23.4357 24.6533 24.0445 24.0445C24.6532 23.4357 24.9967 22.611 25 21.75V21.3375L19.2 20L18.8375 20.6875C18.275 21.775 17.8625 22.5625 16.8125 22.1375C14.7411 21.3961 12.8609 20.2026 11.3084 18.6436C9.75597 17.0847 8.57028 15.1995 7.8375 13.125C7.3875 12.15 8.2375 11.7 9.3125 11.1375L10 10.8L8.6625 5.00002H8.25Z" fill="#3E3E3E"/>
</svg>
