<svg width="26" height="25" viewBox="0 0 26 25" fill="none" xmlns="http://www.w3.org/2000/svg">
<path d="M19.25 25.0001C14.1466 24.9935 9.25414 22.9633 5.6455 19.3546C2.03686 15.746 0.0066149 10.8535 0 5.75014C0 4.22515 0.605802 2.76261 1.68414 1.68428C2.76247 0.605945 4.22501 0.000142868 5.75 0.000142868C6.07293 -0.00231688 6.39531 0.0269908 6.7125 0.0876428C7.01914 0.133018 7.32058 0.20838 7.6125 0.312643C7.81781 0.38468 8.00076 0.50906 8.14326 0.673483C8.28576 0.837907 8.38288 1.03668 8.425 1.25014L10.1375 8.75014C10.1837 8.95372 10.1781 9.16562 10.1213 9.3665C10.0646 9.56738 9.95839 9.75084 9.8125 9.90014C9.65 10.0751 9.6375 10.0876 8.1 10.8876C9.33124 13.5887 11.4915 15.7578 14.1875 17.0001C15 15.4501 15.0125 15.4376 15.1875 15.2751C15.3368 15.1293 15.5203 15.0231 15.7211 14.9663C15.922 14.9095 16.1339 14.904 16.3375 14.9501L23.8375 16.6626C24.0441 16.7106 24.2352 16.8103 24.3926 16.9525C24.5501 17.0946 24.6687 17.2745 24.7375 17.4751C24.843 17.7718 24.9225 18.0772 24.975 18.3876C25.0253 18.7018 25.0504 19.0195 25.05 19.3376C25.027 20.8561 24.4041 22.3038 23.3175 23.3647C22.2308 24.4256 20.7686 25.0135 19.25 25.0001ZM5.75 2.50014C4.88906 2.50344 4.06432 2.8469 3.45554 3.45568C2.84676 4.06446 2.50329 4.8892 2.5 5.75014C2.50331 10.1915 4.2691 14.45 7.40962 17.5905C10.5501 20.731 14.8086 22.4968 19.25 22.5001C20.1109 22.4969 20.9357 22.1534 21.5445 21.5446C22.1532 20.9358 22.4967 20.1111 22.5 19.2501V18.8376L16.7 17.5001L16.3375 18.1876C15.775 19.2751 15.3625 20.0626 14.3125 19.6376C12.2411 18.8962 10.3609 17.7027 8.80842 16.1437C7.25597 14.5848 6.07028 12.6996 5.3375 10.6251C4.8875 9.65014 5.7375 9.20014 6.8125 8.63764L7.5 8.30014L6.1625 2.50014H5.75Z" fill="#F4F4F4"/>
</svg>
