<svg width="177" height="36" viewBox="0 0 177 36" fill="none" xmlns="http://www.w3.org/2000/svg">
<path d="M37.5786 5.6V28H39.3386V5.6H37.5786ZM43.6586 28C45.8346 28 47.744 27.5307 49.3866 26.592C51.0506 25.6533 52.3413 24.352 53.2586 22.688C54.1973 21.0027 54.6666 19.04 54.6666 16.8C54.6666 14.56 54.1973 12.608 53.2586 10.944C52.3413 9.25867 51.0506 7.94667 49.3866 7.008C47.744 6.06933 45.8346 5.6 43.6586 5.6H38.5386V7.36H43.6586C45.0453 7.36 46.304 7.584 47.4346 8.032C48.5866 8.48 49.568 9.12 50.3786 9.952C51.1893 10.7627 51.808 11.7547 52.2346 12.928C52.6826 14.08 52.9066 15.3707 52.9066 16.8C52.9066 18.2293 52.6826 19.5307 52.2346 20.704C51.808 21.856 51.1893 22.848 50.3786 23.68C49.568 24.4907 48.5866 25.12 47.4346 25.568C46.304 26.016 45.0453 26.24 43.6586 26.24H38.5386V28H43.6586ZM64.1421 28.32C65.6141 28.32 66.8941 28.0213 67.9821 27.424C69.0915 26.8053 70.0621 25.856 70.8941 24.576L69.5501 23.712C68.8888 24.7573 68.1315 25.5253 67.2781 26.016C66.4461 26.5067 65.4648 26.752 64.3341 26.752C63.2675 26.752 62.3288 26.496 61.5181 25.984C60.7288 25.472 60.1101 24.7467 59.6621 23.808C59.2355 22.8693 59.0221 21.7707 59.0221 20.512C59.0221 19.2747 59.2461 18.208 59.6941 17.312C60.1421 16.3947 60.7608 15.6907 61.5501 15.2C62.3608 14.688 63.3101 14.432 64.3981 14.432C65.3368 14.432 66.1795 14.656 66.9261 15.104C67.6728 15.552 68.2595 16.1707 68.6861 16.96C69.1341 17.7493 69.3581 18.6453 69.3581 19.648C69.3581 19.8187 69.3261 20 69.2621 20.192C69.2195 20.3627 69.1768 20.5013 69.1341 20.608L69.8381 19.616H58.3821V21.056H71.0861C71.1075 20.9493 71.1181 20.8213 71.1181 20.672C71.1395 20.5227 71.1501 20.384 71.1501 20.256C71.1501 18.8267 70.8621 17.568 70.2861 16.48C69.7315 15.3707 68.9421 14.5067 67.9181 13.888C66.9155 13.2693 65.7421 12.96 64.3981 12.96C63.0115 12.96 61.7848 13.2907 60.7181 13.952C59.6515 14.592 58.8195 15.488 58.2221 16.64C57.6248 17.792 57.3261 19.1147 57.3261 20.608C57.3261 22.1013 57.6141 23.4347 58.1901 24.608C58.7875 25.76 59.5981 26.6667 60.6221 27.328C61.6461 27.9893 62.8195 28.32 64.1421 28.32ZM84.3586 18.528V28H86.0226V18.336C86.0226 16.6933 85.6173 15.392 84.8066 14.432C83.996 13.4507 82.8226 12.96 81.2866 12.96C80.1986 12.96 79.2386 13.2587 78.4066 13.856C77.596 14.4533 76.988 15.2853 76.5826 16.352V13.28H74.9186V28H76.5826V19.04C76.5826 18.1867 76.764 17.4187 77.1266 16.736C77.5106 16.0533 78.0226 15.52 78.6626 15.136C79.324 14.7307 80.0706 14.528 80.9026 14.528C82.0973 14.528 82.972 14.88 83.5266 15.584C84.0813 16.288 84.3586 17.2693 84.3586 18.528ZM88.8349 13.28V14.848H95.2989V13.28H88.8349ZM91.2349 8.16V28H92.8989V8.16H91.2349ZM98.1061 6.624C98.1061 6.944 98.2235 7.22133 98.4581 7.456C98.6928 7.69067 98.9701 7.808 99.2901 7.808C99.6315 7.808 99.9088 7.69067 100.122 7.456C100.357 7.22133 100.474 6.944 100.474 6.624C100.474 6.28267 100.357 6.00533 100.122 5.792C99.9088 5.55733 99.6315 5.44 99.2901 5.44C98.9701 5.44 98.6928 5.55733 98.4581 5.792C98.2235 6.00533 98.1061 6.28267 98.1061 6.624ZM98.4581 13.28V28H100.122V13.28H98.4581ZM105.512 23.808L104.168 24.576C104.381 25.1947 104.712 25.792 105.16 26.368C105.629 26.944 106.237 27.4133 106.984 27.776C107.752 28.1387 108.648 28.32 109.672 28.32C111.08 28.32 112.221 27.9253 113.096 27.136C113.992 26.3253 114.44 25.28 114.44 24C114.44 23.168 114.226 22.4853 113.8 21.952C113.394 21.4187 112.85 20.9707 112.168 20.608C111.506 20.2453 110.781 19.9147 109.992 19.616C109.394 19.4027 108.829 19.1787 108.296 18.944C107.762 18.7093 107.336 18.4107 107.016 18.048C106.696 17.664 106.536 17.184 106.536 16.608C106.536 15.904 106.781 15.3707 107.272 15.008C107.784 14.6453 108.402 14.464 109.128 14.464C110.109 14.464 110.909 14.6987 111.528 15.168C112.146 15.6373 112.626 16.192 112.968 16.832L114.344 16C114.088 15.4453 113.725 14.944 113.256 14.496C112.786 14.048 112.221 13.6853 111.56 13.408C110.898 13.1307 110.152 12.992 109.32 12.992C108.552 12.992 107.826 13.1307 107.144 13.408C106.482 13.664 105.938 14.0693 105.512 14.624C105.106 15.1787 104.904 15.872 104.904 16.704C104.904 17.5787 105.106 18.2933 105.512 18.848C105.938 19.3813 106.472 19.808 107.112 20.128C107.752 20.448 108.413 20.736 109.096 20.992C109.736 21.2053 110.333 21.4507 110.888 21.728C111.442 21.984 111.89 22.3147 112.232 22.72C112.573 23.104 112.744 23.5947 112.744 24.192C112.744 25.0027 112.466 25.6427 111.912 26.112C111.378 26.56 110.664 26.784 109.768 26.784C109 26.784 108.328 26.6453 107.752 26.368C107.197 26.0907 106.738 25.728 106.376 25.28C106.013 24.832 105.725 24.3413 105.512 23.808ZM116.21 13.28V14.848H122.674V13.28H116.21ZM118.61 8.16V28H120.274V8.16H118.61ZM127.145 13.28H125.481V28H127.145V13.28ZM132.041 15.232L132.969 13.856C132.628 13.536 132.244 13.312 131.817 13.184C131.412 13.0347 130.974 12.96 130.505 12.96C129.737 12.96 129.033 13.2267 128.393 13.76C127.774 14.2933 127.284 15.0187 126.921 15.936C126.558 16.832 126.377 17.8667 126.377 19.04H127.145C127.145 18.208 127.241 17.4507 127.433 16.768C127.625 16.0853 127.934 15.5413 128.361 15.136C128.809 14.7307 129.396 14.528 130.121 14.528C130.505 14.528 130.836 14.592 131.113 14.72C131.412 14.8267 131.721 14.9973 132.041 15.232ZM147.994 13.28H146.138L140.922 25.76L141.69 25.824L136.346 13.28H134.362L140.314 26.496L136.538 35.04H138.394L147.994 13.28Z" fill="#F3F3F3"/>
<path d="M10.3543 6.39743C8.1852 8.33902 7.51778 10.878 8.01834 16.3294C8.5189 22.0048 11.5223 28.5764 13.9417 29.2485C15.9439 29.8459 17.8627 27.9043 17.8627 25.2159C17.8627 23.0503 19.3644 20.4366 20.3655 20.9594C20.7827 21.1834 21.3667 22.8263 21.7004 24.6932C22.6181 30.4433 25.7049 31.0407 28.5414 26.0374C30.9607 21.7808 32.379 15.2839 31.7116 11.3261C30.8773 6.69613 28.0408 4.60519 23.2855 5.27728C21.4501 5.57598 19.6147 6.09872 19.281 6.39743C17.9461 7.4429 20.1152 7.81628 23.202 7.06952C27.1231 6.09872 29.2088 7.4429 29.9596 11.4754C30.7939 16.2547 27.3734 27.3816 24.954 27.6056C24.5369 27.6056 23.8695 26.1867 23.4523 24.3198C22.6181 20.4366 21.6169 19.0925 19.5313 19.0925C18.0296 19.0925 16.1942 21.9302 16.1942 24.3198C16.1942 26.1121 15.3599 28.0536 14.5256 28.0536C13.2742 28.0536 10.1874 20.2126 9.77031 15.956C9.26975 11.1021 10.5211 7.4429 12.9405 6.77081C13.7748 6.4721 14.5256 5.94937 14.5256 5.57598C14.5256 4.38116 12.1063 4.82922 10.3543 6.39743Z" fill="white"/>
<path d="M22.7015 9.75787C21.4501 10.3553 19.6981 10.8033 18.7804 10.654C17.8627 10.5793 17.0284 10.8033 16.8616 11.2514C16.4444 12.3715 21.1998 12.5956 23.3689 11.5501C25.2043 10.7287 26.7894 8.63772 25.538 8.63772C25.2043 8.71239 23.9529 9.16045 22.7015 9.75787Z" fill="white"/>
</svg>
